G04 MADE WITH FRITZING*
G04 WWW.FRITZING.ORG*
G04 DOUBLE SIDED*
G04 HOLES PLATED*
G04 CONTOUR ON CENTER OF CONTOUR VECTOR*
%ASAXBY*%
%FSLAX23Y23*%
%MOIN*%
%OFA0B0*%
%SFA1.0B1.0*%
%ADD10C,0.039370*%
%ADD11C,0.078000*%
%ADD12C,0.080000*%
%ADD13R,0.078000X0.078000*%
%ADD14R,0.080000X0.080000*%
%ADD15C,0.024000*%
%LNCOPPER0*%
G90*
G70*
G54D10*
X2529Y1222D03*
X1029Y722D03*
X2129Y2122D03*
X1929Y2522D03*
X1829Y1822D03*
X1729Y2222D03*
X1729Y2622D03*
X2529Y2022D03*
X2329Y2422D03*
X2129Y2822D03*
X1629Y2822D03*
X1629Y2422D03*
X1629Y2022D03*
X1629Y1722D03*
X2029Y2922D03*
G54D11*
X1529Y622D03*
X1629Y622D03*
X1729Y622D03*
X1229Y622D03*
X1329Y622D03*
X1429Y622D03*
G54D10*
X729Y522D03*
X2029Y922D03*
G54D12*
X529Y522D03*
X529Y722D03*
X529Y922D03*
X529Y322D03*
X2929Y722D03*
X2929Y522D03*
X2929Y322D03*
X2929Y922D03*
G54D11*
X329Y1522D03*
X429Y1522D03*
X529Y1522D03*
X629Y1522D03*
X729Y1522D03*
X829Y1522D03*
X929Y1522D03*
X1029Y1522D03*
X1129Y1522D03*
X1229Y1522D03*
X1329Y1522D03*
X1429Y1522D03*
X1529Y1522D03*
X1629Y1522D03*
X1729Y1522D03*
X1829Y1522D03*
X1929Y1522D03*
X2029Y1522D03*
X2129Y1522D03*
X2229Y1522D03*
X329Y1522D03*
X429Y1522D03*
X529Y1522D03*
X629Y1522D03*
X729Y1522D03*
X829Y1522D03*
X929Y1522D03*
X1029Y1522D03*
X1129Y1522D03*
X1229Y1522D03*
X1329Y1522D03*
X1429Y1522D03*
X1529Y1522D03*
X1629Y1522D03*
X1729Y1522D03*
X1829Y1522D03*
X1929Y1522D03*
X2029Y1522D03*
X2129Y1522D03*
X2229Y1522D03*
X2229Y1422D03*
X2129Y1422D03*
X2029Y1422D03*
X1929Y1422D03*
X1829Y1422D03*
X1729Y1422D03*
X1629Y1422D03*
X1529Y1422D03*
X1429Y1422D03*
X1329Y1422D03*
X1229Y1422D03*
X1129Y1422D03*
X1029Y1422D03*
X929Y1422D03*
X829Y1422D03*
X729Y1422D03*
X629Y1422D03*
X529Y1422D03*
X429Y1422D03*
X329Y1422D03*
X329Y1522D03*
X429Y1522D03*
X529Y1522D03*
X629Y1522D03*
X729Y1522D03*
X829Y1522D03*
X929Y1522D03*
X1029Y1522D03*
X1129Y1522D03*
X1229Y1522D03*
X1329Y1522D03*
X1429Y1522D03*
X1529Y1522D03*
X1629Y1522D03*
X1729Y1522D03*
X1829Y1522D03*
X1929Y1522D03*
X2029Y1522D03*
X2129Y1522D03*
X2229Y1522D03*
X329Y1522D03*
X429Y1522D03*
X529Y1522D03*
X629Y1522D03*
X729Y1522D03*
X829Y1522D03*
X929Y1522D03*
X1029Y1522D03*
X1129Y1522D03*
X1229Y1522D03*
X1329Y1522D03*
X1429Y1522D03*
X1529Y1522D03*
X1629Y1522D03*
X1729Y1522D03*
X1829Y1522D03*
X1929Y1522D03*
X2029Y1522D03*
X2129Y1522D03*
X2229Y1522D03*
X2229Y1422D03*
X2129Y1422D03*
X2029Y1422D03*
X1929Y1422D03*
X1829Y1422D03*
X1729Y1422D03*
X1629Y1422D03*
X1529Y1422D03*
X1429Y1422D03*
X1329Y1422D03*
X1229Y1422D03*
X1129Y1422D03*
X1029Y1422D03*
X929Y1422D03*
X829Y1422D03*
X729Y1422D03*
X629Y1422D03*
X529Y1422D03*
X429Y1422D03*
X329Y1422D03*
G54D13*
X1529Y622D03*
X1229Y622D03*
G54D14*
X529Y322D03*
X2929Y922D03*
G54D15*
X2512Y1213D02*
X2045Y932D01*
D02*
X1010Y722D02*
X560Y722D01*
D02*
X560Y919D02*
X1530Y821D01*
D02*
X1530Y821D02*
X1529Y653D01*
D02*
X1842Y1836D02*
X2115Y2109D01*
D02*
X1918Y2507D02*
X1739Y2238D01*
D02*
X2827Y2024D02*
X2548Y2023D01*
D02*
X2830Y1322D02*
X2827Y2024D01*
D02*
X2830Y724D02*
X2830Y1322D01*
D02*
X2897Y723D02*
X2830Y724D01*
D02*
X2328Y1822D02*
X2132Y2804D01*
D02*
X2631Y1322D02*
X2328Y1822D01*
D02*
X2631Y322D02*
X2631Y1322D01*
D02*
X2897Y322D02*
X2631Y322D01*
D02*
X2427Y1921D02*
X2332Y2404D01*
D02*
X2730Y1322D02*
X2427Y1921D01*
D02*
X2730Y521D02*
X2730Y1322D01*
D02*
X2897Y522D02*
X2730Y521D01*
D02*
X1629Y1741D02*
X1629Y2803D01*
D02*
X1742Y2636D02*
X2015Y2909D01*
D02*
X1332Y523D02*
X1330Y592D01*
D02*
X748Y522D02*
X1332Y523D01*
G04 End of Copper0*
M02*