G04 MADE WITH FRITZING*
G04 WWW.FRITZING.ORG*
G04 DOUBLE SIDED*
G04 HOLES PLATED*
G04 CONTOUR ON CENTER OF CONTOUR VECTOR*
%ASAXBY*%
%FSLAX23Y23*%
%MOIN*%
%OFA0B0*%
%SFA1.0B1.0*%
%ADD10R,0.062992X0.074803*%
%ADD11R,0.086900X0.024000*%
%LNPASTEMASK1*%
G90*
G70*
G54D10*
X1851Y1222D03*
X1729Y1222D03*
X1851Y2522D03*
X1729Y2522D03*
X2051Y2122D03*
X1929Y2122D03*
X1951Y2922D03*
X1829Y2922D03*
X1329Y1822D03*
X1207Y1822D03*
G54D11*
X2064Y1122D03*
X2064Y1072D03*
X2064Y1022D03*
X2064Y972D03*
X2329Y972D03*
X2329Y1022D03*
X2329Y1072D03*
X2329Y1122D03*
X1864Y2022D03*
X1864Y1972D03*
X1864Y1922D03*
X1864Y1872D03*
X2129Y1872D03*
X2129Y1922D03*
X2129Y1972D03*
X2129Y2022D03*
X1764Y2422D03*
X1764Y2372D03*
X1764Y2322D03*
X1764Y2272D03*
X2029Y2272D03*
X2029Y2322D03*
X2029Y2372D03*
X2029Y2422D03*
X1729Y2822D03*
X1729Y2772D03*
X1729Y2722D03*
X1729Y2672D03*
X1994Y2672D03*
X1994Y2722D03*
X1994Y2772D03*
X1994Y2822D03*
G54D10*
X2429Y1222D03*
X2307Y1222D03*
X1029Y2122D03*
X907Y2122D03*
X729Y2422D03*
X607Y2422D03*
G04 End of PasteMask1*
M02*