; NON-PLATED HOLES START AT T1
; THROUGH (PLATED) HOLES START AT T100
M48
INCH
T1C0.129921
T100C0.040000
T101C0.015748
T102C0.038000
%
T1
X016285Y003224
X011285Y003224
X021285Y031224
X021285Y003224
X011285Y031224
X016285Y031224
T100
X005285Y009224
X005285Y007224
X005285Y005224
X029285Y009224
X029285Y007224
X029285Y005224
X005285Y003224
X029285Y003224
T101
X016285Y024224
X018285Y018224
X021285Y028224
X016285Y017224
X016285Y020224
X020285Y029224
X017285Y026224
X017285Y022224
X007285Y005224
X025285Y020224
X010285Y007224
X025285Y012224
X016285Y028224
X023285Y024224
X019285Y025224
X020285Y009224
X021285Y021224
T102
X012285Y015224
X016285Y014224
X017285Y006224
X015285Y015224
X016285Y015224
X011285Y014224
X017285Y014224
X008285Y014224
X009285Y015224
X010285Y015224
X011285Y015224
X005285Y014224
X015285Y014224
X021285Y014224
X006285Y015224
X010285Y014224
X014285Y015224
X022285Y014224
X020285Y015224
X004285Y014224
X003285Y015224
X013285Y006224
X016285Y006224
X019285Y015224
X005285Y015224
X018285Y014224
X007285Y014224
X021285Y015224
X004285Y015224
X019285Y014224
X020285Y014224
X007285Y015224
X017285Y015224
X009285Y014224
X022285Y015224
X012285Y014224
X008285Y015224
X013285Y015224
X014285Y006224
X014285Y014224
X018285Y015224
X003285Y014224
X013285Y014224
X012285Y006224
X015285Y006224
X006285Y014224
T00
M30
