G04 MADE WITH FRITZING*
G04 WWW.FRITZING.ORG*
G04 DOUBLE SIDED*
G04 HOLES PLATED*
G04 CONTOUR ON CENTER OF CONTOUR VECTOR*
%ASAXBY*%
%FSLAX23Y23*%
%MOIN*%
%OFA0B0*%
%SFA1.0B1.0*%
%ADD10C,0.039370*%
%ADD11C,0.078000*%
%ADD12C,0.080000*%
%ADD13R,0.062992X0.074803*%
%ADD14R,0.078000X0.078000*%
%ADD15R,0.086900X0.024000*%
%ADD16R,0.080000X0.080000*%
%ADD17C,0.024000*%
%LNCOPPER1*%
G90*
G70*
G54D10*
X2529Y1222D03*
X1029Y722D03*
X2129Y2122D03*
X1929Y2522D03*
X1829Y1822D03*
X1729Y2222D03*
X1729Y2622D03*
X2529Y2022D03*
X2329Y2422D03*
X2129Y2822D03*
X1629Y2822D03*
X1629Y2422D03*
X1629Y2022D03*
X1629Y1722D03*
X2029Y2922D03*
G54D11*
X1529Y622D03*
X1629Y622D03*
X1729Y622D03*
X1229Y622D03*
X1329Y622D03*
X1429Y622D03*
G54D10*
X729Y522D03*
X2029Y922D03*
G54D12*
X529Y522D03*
X529Y722D03*
X529Y922D03*
X529Y322D03*
X2929Y722D03*
X2929Y522D03*
X2929Y322D03*
X2929Y922D03*
G54D11*
X329Y1522D03*
X429Y1522D03*
X529Y1522D03*
X629Y1522D03*
X729Y1522D03*
X829Y1522D03*
X929Y1522D03*
X1029Y1522D03*
X1129Y1522D03*
X1229Y1522D03*
X1329Y1522D03*
X1429Y1522D03*
X1529Y1522D03*
X1629Y1522D03*
X1729Y1522D03*
X1829Y1522D03*
X1929Y1522D03*
X2029Y1522D03*
X2129Y1522D03*
X2229Y1522D03*
X329Y1522D03*
X429Y1522D03*
X529Y1522D03*
X629Y1522D03*
X729Y1522D03*
X829Y1522D03*
X929Y1522D03*
X1029Y1522D03*
X1129Y1522D03*
X1229Y1522D03*
X1329Y1522D03*
X1429Y1522D03*
X1529Y1522D03*
X1629Y1522D03*
X1729Y1522D03*
X1829Y1522D03*
X1929Y1522D03*
X2029Y1522D03*
X2129Y1522D03*
X2229Y1522D03*
X2229Y1422D03*
X2129Y1422D03*
X2029Y1422D03*
X1929Y1422D03*
X1829Y1422D03*
X1729Y1422D03*
X1629Y1422D03*
X1529Y1422D03*
X1429Y1422D03*
X1329Y1422D03*
X1229Y1422D03*
X1129Y1422D03*
X1029Y1422D03*
X929Y1422D03*
X829Y1422D03*
X729Y1422D03*
X629Y1422D03*
X529Y1422D03*
X429Y1422D03*
X329Y1422D03*
X329Y1522D03*
X429Y1522D03*
X529Y1522D03*
X629Y1522D03*
X729Y1522D03*
X829Y1522D03*
X929Y1522D03*
X1029Y1522D03*
X1129Y1522D03*
X1229Y1522D03*
X1329Y1522D03*
X1429Y1522D03*
X1529Y1522D03*
X1629Y1522D03*
X1729Y1522D03*
X1829Y1522D03*
X1929Y1522D03*
X2029Y1522D03*
X2129Y1522D03*
X2229Y1522D03*
X329Y1522D03*
X429Y1522D03*
X529Y1522D03*
X629Y1522D03*
X729Y1522D03*
X829Y1522D03*
X929Y1522D03*
X1029Y1522D03*
X1129Y1522D03*
X1229Y1522D03*
X1329Y1522D03*
X1429Y1522D03*
X1529Y1522D03*
X1629Y1522D03*
X1729Y1522D03*
X1829Y1522D03*
X1929Y1522D03*
X2029Y1522D03*
X2129Y1522D03*
X2229Y1522D03*
X2229Y1422D03*
X2129Y1422D03*
X2029Y1422D03*
X1929Y1422D03*
X1829Y1422D03*
X1729Y1422D03*
X1629Y1422D03*
X1529Y1422D03*
X1429Y1422D03*
X1329Y1422D03*
X1229Y1422D03*
X1129Y1422D03*
X1029Y1422D03*
X929Y1422D03*
X829Y1422D03*
X729Y1422D03*
X629Y1422D03*
X529Y1422D03*
X429Y1422D03*
X329Y1422D03*
G54D13*
X1851Y1222D03*
X1729Y1222D03*
X1851Y2522D03*
X1729Y2522D03*
X2051Y2122D03*
X1929Y2122D03*
X1951Y2922D03*
X1829Y2922D03*
X1329Y1822D03*
X1207Y1822D03*
G54D14*
X1529Y622D03*
X1229Y622D03*
G54D15*
X2064Y1122D03*
X2064Y1072D03*
X2064Y1022D03*
X2064Y972D03*
X2329Y972D03*
X2329Y1022D03*
X2329Y1072D03*
X2329Y1122D03*
X1864Y2022D03*
X1864Y1972D03*
X1864Y1922D03*
X1864Y1872D03*
X2129Y1872D03*
X2129Y1922D03*
X2129Y1972D03*
X2129Y2022D03*
X1764Y2422D03*
X1764Y2372D03*
X1764Y2322D03*
X1764Y2272D03*
X2029Y2272D03*
X2029Y2322D03*
X2029Y2372D03*
X2029Y2422D03*
X1729Y2822D03*
X1729Y2772D03*
X1729Y2722D03*
X1729Y2672D03*
X1994Y2672D03*
X1994Y2722D03*
X1994Y2772D03*
X1994Y2822D03*
G54D13*
X2429Y1222D03*
X2307Y1222D03*
X1029Y2122D03*
X907Y2122D03*
X729Y2422D03*
X607Y2422D03*
G54D16*
X529Y322D03*
X2929Y922D03*
G54D17*
X2429Y1626D02*
X2316Y1254D01*
D02*
X2510Y1222D02*
X2455Y1222D01*
D02*
X2429Y1626D02*
X1647Y1720D01*
D02*
X2911Y948D02*
X2429Y1626D01*
D02*
X1431Y125D02*
X928Y125D01*
D02*
X928Y125D02*
X556Y309D01*
D02*
X2527Y125D02*
X1431Y125D01*
D02*
X2915Y895D02*
X2527Y125D01*
D02*
X1431Y125D02*
X1429Y592D01*
D02*
X2331Y725D02*
X2329Y1016D01*
D02*
X1048Y722D02*
X2331Y725D01*
D02*
X2281Y1212D02*
X2079Y1129D01*
D02*
X1764Y2416D02*
X1764Y2379D01*
D02*
X1994Y2766D02*
X1994Y2679D01*
D02*
X614Y2391D02*
X821Y1552D01*
D02*
X1044Y1548D02*
X1188Y1791D01*
D02*
X2129Y2016D02*
X2129Y1879D01*
D02*
X2029Y2416D02*
X2029Y2279D01*
D02*
X1994Y2679D02*
X1994Y2716D01*
D02*
X1994Y2679D02*
X1994Y2816D01*
D02*
X1729Y2816D02*
X1729Y2729D01*
D02*
X1764Y2416D02*
X1764Y2329D01*
D02*
X1764Y2366D02*
X1764Y2329D01*
D02*
X2110Y2122D02*
X2077Y2122D01*
D02*
X1908Y2091D02*
X1868Y2029D01*
D02*
X1864Y2016D02*
X1864Y1929D01*
D02*
X1910Y2522D02*
X1877Y2522D01*
D02*
X1740Y2491D02*
X1761Y2429D01*
D02*
X1864Y2016D02*
X1864Y1979D01*
D02*
X2510Y2022D02*
X2166Y2022D01*
D02*
X1729Y2666D02*
X1729Y2641D01*
D02*
X1735Y2829D02*
X1803Y2897D01*
D02*
X1759Y2266D02*
X1739Y2238D01*
D02*
X1859Y1866D02*
X1839Y1838D01*
D02*
X1703Y2666D02*
X755Y2429D01*
D02*
X1732Y2266D02*
X1055Y2128D01*
D02*
X2110Y2822D02*
X2031Y2822D01*
D02*
X2310Y2422D02*
X2066Y2422D01*
D02*
X1826Y2022D02*
X1648Y2022D01*
D02*
X1726Y2422D02*
X1648Y2422D01*
D02*
X1691Y2822D02*
X1648Y2822D01*
D02*
X927Y1553D02*
X908Y2091D01*
D02*
X1355Y1825D02*
X1826Y1869D01*
D02*
X2010Y2922D02*
X1977Y2922D01*
D02*
X560Y522D02*
X710Y522D01*
D02*
X2064Y1116D02*
X2064Y1029D01*
D02*
X2329Y979D02*
X2329Y1016D01*
D02*
X2329Y1079D02*
X2329Y1116D01*
D02*
X2329Y979D02*
X2329Y1116D01*
D02*
X1029Y1222D02*
X1029Y1221D01*
D02*
X1029Y1221D02*
X1029Y1392D01*
D02*
X1129Y1222D02*
X1029Y1222D01*
D02*
X1703Y1222D02*
X1129Y1222D01*
D02*
X2064Y1066D02*
X2064Y1029D01*
D02*
X2064Y1079D02*
X2064Y1116D01*
D02*
X1929Y922D02*
X1859Y1191D01*
D02*
X2046Y966D02*
X1929Y922D01*
D02*
X2059Y966D02*
X2039Y938D01*
D02*
X830Y320D02*
X1205Y604D01*
D02*
X2029Y2316D02*
X2029Y2279D01*
D02*
X2029Y2366D02*
X2029Y2329D01*
D02*
X2029Y2416D02*
X2029Y2379D01*
D02*
X1729Y2772D02*
X1728Y2775D01*
D02*
X1729Y2779D02*
X1729Y2816D01*
D02*
X2129Y1979D02*
X2129Y2016D01*
D02*
X2129Y1929D02*
X2129Y1966D01*
D02*
X2129Y1879D02*
X2129Y1916D01*
D02*
X727Y623D02*
X556Y537D01*
D02*
X727Y824D02*
X727Y623D01*
D02*
X727Y1123D02*
X727Y824D01*
D02*
X330Y1122D02*
X727Y1123D01*
D02*
X329Y1392D02*
X330Y1122D01*
D02*
X528Y1221D02*
X830Y1221D01*
D02*
X830Y1221D02*
X830Y320D01*
D02*
X830Y320D02*
X560Y322D01*
D02*
X529Y1392D02*
X528Y1221D01*
G04 End of Copper1*
M02*