G04 MADE WITH FRITZING*
G04 WWW.FRITZING.ORG*
G04 DOUBLE SIDED*
G04 HOLES PLATED*
G04 CONTOUR ON CENTER OF CONTOUR VECTOR*
%ASAXBY*%
%FSLAX23Y23*%
%MOIN*%
%OFA0B0*%
%SFA1.0B1.0*%
%ADD10C,0.049370*%
%ADD11C,0.088000*%
%ADD12C,0.090000*%
%ADD13C,0.139921*%
%ADD14R,0.072992X0.084803*%
%ADD15R,0.088000X0.088000*%
%ADD16R,0.096900X0.034000*%
%ADD17R,0.090000X0.090000*%
%LNMASK1*%
G90*
G70*
G54D10*
X2529Y1222D03*
X1029Y722D03*
X2129Y2122D03*
X1929Y2522D03*
X1829Y1822D03*
X1729Y2222D03*
X1729Y2622D03*
X2529Y2022D03*
X2329Y2422D03*
X2129Y2822D03*
X1629Y2822D03*
X1629Y2422D03*
X1629Y2022D03*
X1629Y1722D03*
X2029Y2922D03*
G54D11*
X1529Y622D03*
X1629Y622D03*
X1729Y622D03*
X1229Y622D03*
X1329Y622D03*
X1429Y622D03*
G54D10*
X729Y522D03*
X2029Y922D03*
G54D12*
X529Y522D03*
X529Y722D03*
X529Y922D03*
X529Y322D03*
X2929Y722D03*
X2929Y522D03*
X2929Y322D03*
X2929Y922D03*
G54D11*
X329Y1522D03*
X429Y1522D03*
X529Y1522D03*
X629Y1522D03*
X729Y1522D03*
X829Y1522D03*
X929Y1522D03*
X1029Y1522D03*
X1129Y1522D03*
X1229Y1522D03*
X1329Y1522D03*
X1429Y1522D03*
X1529Y1522D03*
X1629Y1522D03*
X1729Y1522D03*
X1829Y1522D03*
X1929Y1522D03*
X2029Y1522D03*
X2129Y1522D03*
X2229Y1522D03*
X329Y1522D03*
X429Y1522D03*
X529Y1522D03*
X629Y1522D03*
X729Y1522D03*
X829Y1522D03*
X929Y1522D03*
X1029Y1522D03*
X1129Y1522D03*
X1229Y1522D03*
X1329Y1522D03*
X1429Y1522D03*
X1529Y1522D03*
X1629Y1522D03*
X1729Y1522D03*
X1829Y1522D03*
X1929Y1522D03*
X2029Y1522D03*
X2129Y1522D03*
X2229Y1522D03*
X2229Y1422D03*
X2129Y1422D03*
X2029Y1422D03*
X1929Y1422D03*
X1829Y1422D03*
X1729Y1422D03*
X1629Y1422D03*
X1529Y1422D03*
X1429Y1422D03*
X1329Y1422D03*
X1229Y1422D03*
X1129Y1422D03*
X1029Y1422D03*
X929Y1422D03*
X829Y1422D03*
X729Y1422D03*
X629Y1422D03*
X529Y1422D03*
X429Y1422D03*
X329Y1422D03*
X329Y1522D03*
X429Y1522D03*
X529Y1522D03*
X629Y1522D03*
X729Y1522D03*
X829Y1522D03*
X929Y1522D03*
X1029Y1522D03*
X1129Y1522D03*
X1229Y1522D03*
X1329Y1522D03*
X1429Y1522D03*
X1529Y1522D03*
X1629Y1522D03*
X1729Y1522D03*
X1829Y1522D03*
X1929Y1522D03*
X2029Y1522D03*
X2129Y1522D03*
X2229Y1522D03*
X329Y1522D03*
X429Y1522D03*
X529Y1522D03*
X629Y1522D03*
X729Y1522D03*
X829Y1522D03*
X929Y1522D03*
X1029Y1522D03*
X1129Y1522D03*
X1229Y1522D03*
X1329Y1522D03*
X1429Y1522D03*
X1529Y1522D03*
X1629Y1522D03*
X1729Y1522D03*
X1829Y1522D03*
X1929Y1522D03*
X2029Y1522D03*
X2129Y1522D03*
X2229Y1522D03*
X2229Y1422D03*
X2129Y1422D03*
X2029Y1422D03*
X1929Y1422D03*
X1829Y1422D03*
X1729Y1422D03*
X1629Y1422D03*
X1529Y1422D03*
X1429Y1422D03*
X1329Y1422D03*
X1229Y1422D03*
X1129Y1422D03*
X1029Y1422D03*
X929Y1422D03*
X829Y1422D03*
X729Y1422D03*
X629Y1422D03*
X529Y1422D03*
X429Y1422D03*
X329Y1422D03*
G54D13*
X2129Y3122D03*
X1629Y3122D03*
X1129Y3122D03*
X1629Y322D03*
X1129Y322D03*
X2129Y322D03*
G54D14*
X1851Y1222D03*
X1729Y1222D03*
X1851Y2522D03*
X1729Y2522D03*
X2051Y2122D03*
X1929Y2122D03*
X1951Y2922D03*
X1829Y2922D03*
X1329Y1822D03*
X1207Y1822D03*
G54D15*
X1529Y622D03*
X1229Y622D03*
G54D16*
X2064Y1122D03*
X2064Y1072D03*
X2064Y1022D03*
X2064Y972D03*
X2329Y972D03*
X2329Y1022D03*
X2329Y1072D03*
X2329Y1122D03*
X1864Y2022D03*
X1864Y1972D03*
X1864Y1922D03*
X1864Y1872D03*
X2129Y1872D03*
X2129Y1922D03*
X2129Y1972D03*
X2129Y2022D03*
X1764Y2422D03*
X1764Y2372D03*
X1764Y2322D03*
X1764Y2272D03*
X2029Y2272D03*
X2029Y2322D03*
X2029Y2372D03*
X2029Y2422D03*
X1729Y2822D03*
X1729Y2772D03*
X1729Y2722D03*
X1729Y2672D03*
X1994Y2672D03*
X1994Y2722D03*
X1994Y2772D03*
X1994Y2822D03*
G54D14*
X2429Y1222D03*
X2307Y1222D03*
X1029Y2122D03*
X907Y2122D03*
X729Y2422D03*
X607Y2422D03*
G54D17*
X529Y322D03*
X2929Y922D03*
G04 End of Mask1*
M02*